<?xml version="1.0" standalone="no"?>
<svg xmlns="http://www.w3.org/2000/svg"
     version="1.1" width="332.26568603515625"
     height="96.75779724121094">
    <defs>
        <style type="text/css">svg{background-color:#fff}text,tspan{font:12px
            Arial}path{fill-opacity:0;stroke-width:2px;stroke:#000}circle{fill:#6b6659;stroke-width:2px;stroke:#000}.anchor
            text,.any-character text{fill:#fff}.anchor rect,.any-character rect{fill:#6b6659}.escape
            text,.charset-escape text,.literal text{fill:#000}.escape rect,.charset-escape rect{fill:#bada55}.literal
            rect{fill:#dae9e5}.charset .charset-box{fill:#cbcbba}.subexp .subexp-label tspan,.charset .charset-label
            tspan,.match-fragment .repeat-label tspan{font-size:10px}.repeat-label{cursor:help}.subexp .subexp-label
            tspan,.charset .charset-label tspan{dominant-baseline:text-after-edge}.subexp
            .subexp-box{stroke:#908c83;stroke-dasharray:6,2;stroke-width:2px;fill-opacity:0}.quote{fill:#908c83}
        </style>
    </defs>
    <g class="root" transform="matrix(1,0,0,1,15,10)">
        <g class="regexp match" transform="matrix(1,0,0,1,10,0)">
            <path d="M42,42.0000125H67.25M102.234375,42H122.2344M154.2344,42.0000125H179.4844M204.468775,42H224.4688"></path>
            <g class="match-fragment" transform="matrix(1,0,0,1,0,30.2422)">
                <path d="M10,11.7578125q-10,0 -10,10v1.7578125q0,10 10,10h32q10,0 10,-10v-1.7578125q0,-10 -10,-10M52,26.7578125l5,-5m-5,5l-5,-5"></path>
                <g class="escape" transform="matrix(1,0,0,1,10,0)">
                    <g class="label">
                        <rect width="32" height="23.515625" rx="3" ry="3"></rect>
                        <text x="0" y="0" transform="matrix(1,0,0,1,5,16.7578)">
                            <tspan>digit</tspan>
                        </text>
                    </g>
                </g>
                <text x="0" y="0" class="repeat-label" transform="matrix(1,0,0,1,0,44.5156)">
                    <tspan>at most once</tspan>
                    <title>
                        <text x="0" y="0">repeats at most 2 times in total</text>
                    </title>
                </text>
            </g>
            <g class="match-fragment charset" transform="matrix(1,0,0,1,67.25,0)">
                <rect rx="3" ry="3" class="charset-box" transform="matrix(1,0,0,1,0,11)" width="34.984375"
                      height="62"></rect>
                <text x="0" y="0" class="charset-label" transform="matrix(1,0,0,1,0,11)">
                    <tspan>One of:</tspan>
                </text>
                <g transform="matrix(1,0,0,1,5,16)">
                    <g class="literal" transform="matrix(1,0,0,1,0,0)">
                        <g class="label">
                            <rect width="24.984375" height="23.5" rx="3" ry="3"></rect>
                            <text x="0" y="0" transform="matrix(1,0,0,1,5,16.75)">
                                <tspan class="quote">“</tspan>
                                <tspan>+</tspan>
                                <tspan class="quote">”</tspan>
                            </text>
                        </g>
                    </g>
                    <g class="literal" transform="matrix(1,0,0,1,1.5078,28.5)">
                        <g class="label">
                            <rect width="21.96875" height="23.5" rx="3" ry="3"></rect>
                            <text x="0" y="0" transform="matrix(1,0,0,1,5,16.75)">
                                <tspan class="quote">“</tspan>
                                <tspan>-</tspan>
                                <tspan class="quote">”</tspan>
                            </text>
                        </g>
                    </g>
                </g>
            </g>
            <g class="match-fragment" transform="matrix(1,0,0,1,112.2344,30.2422)">
                <path d="M10,11.7578125q-10,0 -10,10v1.7578125q0,10 10,10h32q10,0 10,-10v-1.7578125q0,-10 -10,-10M52,26.7578125l5,-5m-5,5l-5,-5"></path>
                <g class="escape" transform="matrix(1,0,0,1,10,0)">
                    <g class="label">
                        <rect width="32" height="23.515625" rx="3" ry="3"></rect>
                        <text x="0" y="0" transform="matrix(1,0,0,1,5,16.7578)">
                            <tspan>digit</tspan>
                        </text>
                    </g>
                </g>
                <text x="0" y="0" class="repeat-label" transform="matrix(1,0,0,1,0,44.5156)">
                    <tspan>at most once</tspan>
                    <title>
                        <text x="0" y="0">repeats at most 2 times in total</text>
                    </title>
                </text>
            </g>
            <g class="match-fragment literal" transform="matrix(1,0,0,1,179.4844,30.25)">
                <g class="label">
                    <rect width="24.984375" height="23.5" rx="3" ry="3"></rect>
                    <text x="0" y="0" transform="matrix(1,0,0,1,5,16.75)">
                        <tspan class="quote">“</tspan>
                        <tspan>=</tspan>
                        <tspan class="quote">”</tspan>
                    </text>
                </g>
            </g>
            <g class="match-fragment" transform="matrix(1,0,0,1,214.4688,30.2422)">
                <path d="M10,11.7578125q-10,0 -10,10v1.7578125q0,10 10,10h32q10,0 10,-10v-1.7578125q0,-10 -10,-10M52,26.7578125l5,-5m-5,5l-5,-5"></path>
                <g class="escape" transform="matrix(1,0,0,1,10,0)">
                    <g class="label">
                        <rect width="32" height="23.515625" rx="3" ry="3"></rect>
                        <text x="0" y="0" transform="matrix(1,0,0,1,5,16.7578)">
                            <tspan>digit</tspan>
                        </text>
                    </g>
                </g>
                <text x="0" y="0" class="repeat-label" transform="matrix(1,0,0,1,0,44.5156)">
                    <tspan>at most 2 times</tspan>
                    <title>
                        <text x="0" y="0">repeats at most 3 times in total</text>
                    </title>
                </text>
            </g>
        </g>
        <path d="M20,42.0000125H0M266.4688,42.0000125H302.26568603515625"></path>
        <circle cx="0" cy="42.0000125" r="5"></circle>
        <circle cx="302.26568603515625" cy="42.0000125" r="5"></circle>
    </g>
</svg>
